<svg viewBox="0 0 24 24" xmlns="http://www.w3.org/2000/svg"><path d="M12.7244 20.6865C13.4668 21.1645 14.3505 21.3741 15.2285 21.2803C16.1065 21.1865 16.9259 20.795 17.5506 20.1709L18.0948 19.6267C18.3362 19.3828 18.4716 19.0534 18.4716 18.7102C18.4716 18.367 18.3362 18.0376 18.0948 17.7937L15.8034 15.5166C15.5619 15.2761 15.2349 15.1411 14.8941 15.1411C14.5532 15.1411 14.2262 15.2761 13.9847 15.5166C13.7407 15.758 13.4113 15.8934 13.0681 15.8934C12.7249 15.8934 12.3956 15.758 12.1516 15.5166L8.49971 11.8647C8.25833 11.6208 8.12295 11.2914 8.12295 10.9482C8.12295 10.605 8.25833 10.2756 8.49971 10.0316C8.74021 9.79009 8.87522 9.46312 8.87522 9.12226C8.87522 8.7814 8.74021 8.45442 8.49971 8.21287L6.29427 5.92151C6.05029 5.68013 5.72093 5.54474 5.37772 5.54474C5.03452 5.54474 4.70516 5.68013 4.46118 5.92151L3.91698 6.46571C3.2817 7.08156 2.87686 7.89666 2.77 8.77498C2.66314 9.65329 2.86074 10.5417 3.32982 11.2919C5.82702 14.9993 9.01701 18.1893 12.7244 20.6865Z" fill="#FFC7C3" style="fill:var(--icon--base--brand-soft, #FFC7C3)"/> <path d="M8.17764 9.12216C8.17762 8.96584 8.11534 8.81597 8.00505 8.70519L7.99687 8.69702L5.80123 6.41599C5.6881 6.30508 5.53641 6.24253 5.37791 6.24248C5.21844 6.24248 5.06523 6.30565 4.95186 6.41781L4.41045 6.95922L4.40227 6.96649C3.88168 7.47122 3.55054 8.13983 3.46297 8.85962C3.37557 9.57866 3.53723 10.3055 3.92081 10.9199C6.36511 14.5438 9.48517 17.6623 13.1103 20.1049C13.7171 20.493 14.4379 20.6629 15.1543 20.5863C15.8739 20.5095 16.5454 20.1885 17.0574 19.677L17.5988 19.1365C17.7109 19.0232 17.7741 18.8699 17.7741 18.7105C17.7741 18.551 17.7109 18.3978 17.5988 18.2844L15.3114 16.0116C15.2007 15.9014 15.0506 15.8391 14.8945 15.839C14.7381 15.839 14.5874 15.9004 14.4766 16.0107L14.4757 16.0125C14.1012 16.383 13.5953 16.591 13.0685 16.5911C12.5416 16.5911 12.0351 16.3831 11.6605 16.0125L11.6587 16.0098L8.00595 12.3579L8.00414 12.3552C7.63354 11.9806 7.42548 11.475 7.42548 10.9481C7.42551 10.4212 7.63357 9.91551 8.00414 9.54094L8.00505 9.53912C8.11536 9.42832 8.17764 9.27851 8.17764 9.12216ZM13.4101 2.00019C13.8554 1.99937 14.2877 2.15235 14.6337 2.43259C14.9799 2.71313 15.2191 3.10475 15.3105 3.54086C15.4018 3.97702 15.3397 4.43123 15.1352 4.82717C14.9307 5.22301 14.5961 5.53577 14.1877 5.71379L14.1886 5.71469L12.2982 6.54044C12.1956 6.58537 12.1079 6.65932 12.0466 6.75301C11.9853 6.84666 11.9532 6.95633 11.953 7.06823V7.09276H14.6492C15.0345 7.09277 15.3469 7.40512 15.3469 7.79042C15.3468 8.17572 15.0345 8.48807 14.6492 8.48808H11.2554C10.87 8.48808 10.5577 8.17573 10.5577 7.79042V7.06641C10.5582 6.68374 10.6697 6.30924 10.8793 5.98903C11.089 5.66873 11.3879 5.41588 11.7386 5.2623L13.629 4.43565C13.7435 4.38582 13.8388 4.29763 13.8961 4.18674C13.9532 4.076 13.9698 3.94897 13.9443 3.82701C13.9187 3.70488 13.8523 3.59488 13.7553 3.51633C13.6583 3.43778 13.5367 3.39518 13.4119 3.39551H12.529C12.4098 3.39565 12.2937 3.43298 12.1965 3.5018C12.0993 3.5706 12.0255 3.66752 11.9857 3.77977C11.8572 4.14293 11.4586 4.33335 11.0955 4.20491C10.7324 4.07637 10.542 3.67778 10.6703 3.31466C10.8063 2.93067 11.0582 2.59794 11.3907 2.36264C11.7231 2.12747 12.12 2.0007 12.5271 2.00019H13.4101ZM18.1793 5.82098H19.7118V4.06955L18.1793 5.82098ZM9.57297 9.12216C9.57297 9.6466 9.36468 10.149 8.99522 10.5211L8.99613 10.522C8.884 10.6354 8.82083 10.7886 8.8208 10.9481C8.8208 11.1075 8.88397 11.2607 8.99613 11.3741L12.6425 15.0205L12.7343 15.095C12.8326 15.16 12.9489 15.1958 13.0685 15.1958C13.2278 15.1957 13.3804 15.1325 13.4937 15.0205C13.8658 14.6507 14.3698 14.4437 14.8945 14.4437C15.4192 14.4438 15.9222 14.6515 16.2943 15.0214L18.5863 17.2988L18.5908 17.3033C18.9613 17.6779 19.1695 18.1836 19.1695 18.7105C19.1694 19.2373 18.9613 19.7431 18.5908 20.1176L18.0439 20.6645C17.3066 21.4011 16.3388 21.8637 15.3023 21.9744C14.266 22.085 13.2226 21.8373 12.3464 21.2731C12.3424 21.2706 12.3385 21.2676 12.3345 21.2649C8.55271 18.7176 5.29814 15.4639 2.75078 11.6821C2.74639 11.6756 2.74222 11.6687 2.73806 11.6621C2.18435 10.7765 1.9515 9.72745 2.07764 8.69066C2.20379 7.6539 2.6813 6.69146 3.43118 5.96451L3.97078 5.42582C4.34538 5.05522 4.85097 4.84716 5.37791 4.84716C5.83895 4.8472 6.28388 5.00605 6.63879 5.2941L6.78504 5.42582L6.79685 5.43763L9.00248 7.72865C9.36831 8.10015 9.57294 8.60049 9.57297 9.12216ZM21.1071 5.82098H21.2579C21.6432 5.82098 21.9555 6.13336 21.9556 6.51864C21.9556 6.90395 21.6432 7.2163 21.2579 7.2163H21.1071V7.79224C21.1069 8.17725 20.7945 8.48971 20.4094 8.4899C20.0243 8.4899 19.712 8.17736 19.7118 7.79224V7.2163H17.3227C17.1903 7.21627 17.0588 7.18988 16.9366 7.13909C16.8145 7.08828 16.7038 7.01386 16.6105 6.92016C16.517 6.82628 16.4427 6.71476 16.3924 6.59222C16.3422 6.46974 16.3164 6.33763 16.317 6.20524C16.3184 5.96547 16.4053 5.73412 16.5614 5.55209L16.5659 5.54664L19.3729 2.33903C19.4657 2.23287 19.5798 2.14761 19.7082 2.08921C19.837 2.03065 19.9772 2.0001 20.1188 2.00019L20.2205 2.00564C20.7218 2.05708 21.1071 2.48308 21.1071 2.99036V5.82098Z" fill="#FF585C" style="fill:var(--icon--base--brand-solid, #FF585C)"/></svg>
