<svg viewBox="0 0 24 24" xmlns="http://www.w3.org/2000/svg"><path fill-rule="evenodd" clip-rule="evenodd" d="M8.42218 4.12881H5.91771C5.53815 4.12881 5.17414 4.27958 4.90575 4.54797C4.63736 4.81636 4.48658 5.18037 4.48658 5.55993V19.8712C4.48658 20.2508 4.63736 20.6148 4.90575 20.8832C5.17414 21.1516 5.53815 21.3023 5.91771 21.3023H18.0823C18.4619 21.3023 18.8259 21.1516 19.0943 20.8832C19.3626 20.6148 19.5134 20.2508 19.5134 19.8712V5.55993C19.5134 5.18037 19.3626 4.81636 19.0943 4.54797C18.8259 4.27958 18.4619 4.12881 18.0823 4.12881H15.5778V4.84437C15.5778 5.03231 15.5408 5.2184 15.4689 5.39204C15.397 5.56567 15.2915 5.72344 15.1587 5.85633C15.0258 5.98922 14.868 6.09464 14.6944 6.16656C14.5207 6.23848 14.3346 6.2755 14.1467 6.2755H9.85331C9.47375 6.2755 9.10974 6.12472 8.84135 5.85633C8.57296 5.58794 8.42218 5.22393 8.42218 4.84437V4.12881Z" fill="#FFC7C3" style="fill:var(--icon--base--brand-soft, #FFC7C3)"/> <path d="M14.1467 2.69767H9.85331C9.47376 2.69767 9.10974 2.84845 8.84135 3.11684C8.57297 3.38523 8.42218 3.74925 8.42218 4.12881V4.84437C8.42218 5.22393 8.57296 5.58794 8.84135 5.85633C9.10974 6.12472 9.47375 6.2755 9.85331 6.2755H14.1467C14.5263 6.2755 14.8903 6.12472 15.1587 5.85633C15.427 5.58794 15.5778 5.22393 15.5778 4.84437V4.12881C15.5778 3.74925 15.427 3.38523 15.1587 3.11684C14.8903 2.84845 14.5263 2.69767 14.1467 2.69767Z" fill="white" style="fill:var(--icon--base--contrast, white)"/> <path d="M11.0025 9.43828C10.8393 9.43828 10.6828 9.50312 10.5674 9.61852C10.452 9.73393 10.3871 9.89046 10.3871 10.0537V11.781H8.65975C8.49654 11.781 8.34002 11.8459 8.22461 11.9613C8.1092 12.0767 8.04437 12.2332 8.04437 12.3964V14.3928C8.04437 14.732 8.32058 15.0082 8.65975 15.0082H10.3871V16.7356C10.3871 17.0748 10.6633 17.351 11.0025 17.351H12.9989C13.1621 17.351 13.3187 17.2861 13.4341 17.1707C13.5495 17.0553 13.6143 16.8988 13.6143 16.7356V15.0054H15.3417C15.5049 15.0054 15.6614 14.9405 15.7768 14.8251C15.8922 14.7097 15.9571 14.5532 15.9571 14.39V12.3964C15.9567 12.2335 15.8917 12.0773 15.7763 11.9622C15.661 11.8471 15.5047 11.7825 15.3417 11.7825H13.6143V10.0522C13.6139 9.88927 13.5489 9.73311 13.4336 9.61802C13.3182 9.50292 13.1619 9.43828 12.9989 9.43828H11.0025Z" fill="white" style="fill:var(--icon--base--contrast, white)"/> <path d="M12.9986 8.74055C13.3462 8.74055 13.6799 8.87846 13.9261 9.12391C14.0904 9.28789 14.2064 9.49133 14.2658 9.71166C14.2955 9.82125 14.3118 9.93502 14.3122 10.0505V11.0834H15.3414C15.6895 11.0834 16.0236 11.2216 16.2698 11.4677C16.516 11.7138 16.6549 12.048 16.655 12.3961V14.3928C16.6548 14.468 16.6469 14.5423 16.6341 14.6154C16.5881 14.8809 16.4623 15.1283 16.2689 15.3212C16.0228 15.5667 15.689 15.7046 15.3414 15.7046H14.3122V16.7356L14.3058 16.8656C14.2759 17.1661 14.1424 17.4486 13.927 17.6641C13.6808 17.9102 13.3467 18.0483 12.9986 18.0483H11.0028C10.2783 18.0483 9.68919 17.4601 9.68916 16.7356V15.7055H8.65991C7.93542 15.7055 7.34632 15.1173 7.34632 14.3928V12.3961C7.34641 12.048 7.48533 11.7138 7.7315 11.4677L7.82779 11.3805C8.0614 11.1891 8.35531 11.0834 8.65991 11.0834H9.68916V10.0532C9.68928 9.70514 9.82819 9.37096 10.0743 9.12482L10.1706 9.03761C10.4042 8.84634 10.6982 8.74055 11.0028 8.74055H12.9986ZM11.0845 11.7811C11.0845 12.1664 10.7721 12.4787 10.3868 12.4787H8.74167V14.3101H10.3868C10.772 14.3101 11.0843 14.6227 11.0845 15.0078V16.653H12.9168V15.0051C12.917 14.9101 12.9358 14.8195 12.9704 14.7371C13.0756 14.485 13.3243 14.3074 13.6145 14.3074H15.2597V12.4806H13.6145C13.2532 12.4806 12.9562 12.2056 12.9205 11.8537L12.9168 11.7829V10.1377H11.0845V11.7811ZM14.8799 4.12845C14.8798 3.93405 14.803 3.7472 14.6655 3.60974C14.528 3.47229 14.3413 3.39538 14.1468 3.39535H9.85359C9.65921 3.39535 9.4724 3.47238 9.33488 3.60974C9.19741 3.74721 9.11967 3.93406 9.11958 4.12845V4.8443C9.11958 5.03882 9.19733 5.22546 9.33488 5.36301C9.47242 5.50049 9.65911 5.5774 9.85359 5.5774H14.1468C14.2431 5.57738 14.3386 5.55883 14.4275 5.52198L14.492 5.4911C14.5556 5.45713 14.6144 5.41418 14.6655 5.36301C14.7098 5.31873 14.7476 5.26871 14.7791 5.21493C14.784 5.2065 14.789 5.19811 14.7936 5.1895L14.8245 5.125C14.8613 5.03604 14.8799 4.94057 14.8799 4.8443V4.12845ZM20.2115 19.8715C20.2114 20.436 19.9866 20.9777 19.5874 21.3768C19.1882 21.7759 18.6466 22 18.0822 22H5.91736C5.3529 21.9999 4.81124 21.776 4.41209 21.3768C4.01295 20.9777 3.789 20.436 3.78891 19.8715V5.56014C3.78891 4.99568 4.01304 4.45407 4.41209 4.05487C4.81124 3.65572 5.35289 3.43087 5.91736 3.43078H7.84505C7.94957 3.13009 8.11895 2.85255 8.34832 2.62318C8.74752 2.22415 9.28914 2 9.85359 2H14.1468C14.7113 2.00004 15.2529 2.22405 15.6521 2.62318C15.8815 2.85259 16.0509 3.13004 16.1554 3.43078H18.0822C18.6467 3.43078 19.1882 3.65564 19.5874 4.05487C19.9866 4.45409 20.2115 4.99556 20.2115 5.56014V19.8715ZM16.2753 4.8443C16.2753 5.40884 16.0513 5.95035 15.6521 6.34956C15.4545 6.54716 15.2198 6.70407 14.9617 6.81105L14.7646 6.8819C14.7246 6.89402 14.6834 6.90124 14.6428 6.91097C14.4814 6.94973 14.3156 6.97274 14.1468 6.97275H9.85359C9.28904 6.97275 8.74754 6.74873 8.34832 6.34956C7.94909 5.95034 7.72423 5.40889 7.72423 4.8443V4.82613H5.91736C5.72296 4.82622 5.53611 4.90396 5.39865 5.04142C5.26127 5.17895 5.18426 5.36575 5.18426 5.56014V19.8715C5.18435 20.0659 5.26118 20.2528 5.39865 20.3903C5.53611 20.5277 5.72296 20.6046 5.91736 20.6047H18.0822C18.2766 20.6047 18.4633 20.5277 18.6009 20.3903C18.7383 20.2528 18.8161 20.066 18.8162 19.8715V5.56014C18.8162 5.36563 18.7384 5.17897 18.6009 5.04142C18.4633 4.90388 18.2767 4.82613 18.0822 4.82613H16.2753V4.8443Z" fill="#FF585C" style="fill:var(--icon--base--brand-solid, #FF585C)"/></svg>
