<svg viewBox="0 0 24 24" xmlns="http://www.w3.org/2000/svg"><path d="M4.17021 9.86464H5.59367C5.78243 9.86464 5.96346 9.93962 6.09693 10.0731C6.23041 10.2066 6.30539 10.3876 6.30539 10.5764V14.8467C6.30539 15.0355 6.23041 15.2165 6.09693 15.35C5.96346 15.4835 5.78243 15.5585 5.59367 15.5585H4.17021C3.79269 15.5585 3.43063 15.4085 3.16368 15.1415C2.89673 14.8746 2.74676 14.5125 2.74676 14.135V11.2881C2.74676 10.9106 2.89673 10.5485 3.16368 10.2816C3.43063 10.0146 3.79269 9.86464 4.17021 9.86464Z" fill="#FFC7C3" style="fill:var(--icon--base--brand-soft, #FFC7C3)"/> <path d="M19.8282 15.5585H18.4048C18.216 15.5585 18.035 15.4835 17.9015 15.35C17.768 15.2165 17.693 15.0355 17.693 14.8467V10.5764C17.693 10.3876 17.768 10.2066 17.9015 10.0731C18.035 9.93962 18.216 9.86464 18.4048 9.86464H19.8282C20.2057 9.86464 20.5678 10.0146 20.8347 10.2816C21.1017 10.5485 21.2517 10.9106 21.2517 11.2881V14.135C21.2517 14.5125 21.1017 14.8746 20.8347 15.1415C20.5678 15.4085 20.2057 15.5585 19.8282 15.5585Z" fill="#FFC7C3" style="fill:var(--icon--base--brand-soft, #FFC7C3)"/> <path d="M14.8461 19.473C14.8461 19.9449 14.6587 20.3974 14.325 20.7311C13.9913 21.0648 13.5387 21.2523 13.0668 21.2523H10.9316C10.4597 21.2523 10.0071 21.0648 9.67345 20.7311C9.33977 20.3974 9.1523 19.9449 9.1523 19.473C9.1523 19.0011 9.33977 18.5485 9.67345 18.2148C10.0071 17.8811 10.4597 17.6936 10.9316 17.6936H13.0668C13.5387 17.6936 13.9913 17.8811 14.325 18.2148C14.6587 18.5485 14.8461 19.0011 14.8461 19.473Z" fill="#FFC7C3" style="fill:var(--icon--base--brand-soft, #FFC7C3)"/> <path fill-rule="evenodd" clip-rule="evenodd" d="M12.0119 2.00157C12.8371 1.99017 13.6571 2.13873 14.4251 2.4414C15.2009 2.74732 15.91 3.20336 16.5094 3.78326C17.1087 4.3632 17.588 5.0565 17.9193 5.82183C18.2506 6.58729 18.4283 7.41176 18.4409 8.24573V9.1176H19.8285C20.404 9.11773 20.957 9.34607 21.364 9.75301C21.7708 10.1601 21.9994 10.713 21.9994 11.2885V14.1357C21.9992 14.711 21.7708 15.2633 21.364 15.6702C20.957 16.0772 20.404 16.3055 19.8285 16.3056H18.4409V16.6258C18.4409 17.5789 18.0619 18.4934 17.388 19.1674C16.8691 19.6863 16.2073 20.0291 15.4954 20.1599C15.3791 20.5719 15.1612 20.9525 14.8532 21.2605C14.3795 21.734 13.7365 22 13.0667 22H10.9318C10.262 21.9999 9.61894 21.7339 9.14521 21.2605C8.67159 20.7868 8.40495 20.1437 8.40471 19.4739C8.40471 18.804 8.67161 18.1612 9.14521 17.6874C9.61899 17.2136 10.2617 16.9469 10.9318 16.9469H13.0667C13.7367 16.9469 14.3794 17.2136 14.8532 17.6874C15.1232 17.9575 15.3226 18.2834 15.4468 18.6371C15.7777 18.5383 16.0827 18.3592 16.3313 18.1107C16.7248 17.7169 16.9463 17.1825 16.9463 16.6258V8.26811L16.9365 8.02971C16.9008 7.47417 16.7698 6.92739 16.5483 6.4154C16.2951 5.83049 15.9281 5.30076 15.4701 4.85752C15.012 4.41432 14.4702 4.06573 13.8772 3.83191C13.2842 3.59816 12.6502 3.48386 12.0128 3.49523C12.0042 3.49538 11.9952 3.49537 11.9866 3.49523C11.3492 3.4838 10.7153 3.5982 10.1222 3.83191C9.52902 4.06572 8.9875 4.41422 8.52926 4.85752C8.07105 5.30084 7.70441 5.8303 7.45111 6.4154C7.19787 7.00051 7.06276 7.63062 7.05312 8.26811V14.847C7.053 15.2337 6.89937 15.605 6.62595 15.8785C6.35251 16.1519 5.98119 16.3054 5.5945 16.3056H4.17091C3.59541 16.3056 3.04246 16.077 2.63541 15.6702C2.22866 15.2633 2.00024 14.711 2 14.1357V11.2885C2 10.7128 2.22831 10.1601 2.63541 9.75301C3.04251 9.34591 3.59518 9.1176 4.17091 9.1176H5.5585V8.24573L5.57115 7.93338C5.61799 7.20643 5.7901 6.49177 6.08006 5.82183C6.41147 5.05631 6.89052 4.36328 7.49003 3.78326C8.08947 3.20335 8.79745 2.7473 9.57336 2.4414C10.3412 2.13876 11.1614 1.98925 11.9866 2.0006C11.9906 2.00061 11.9952 2.00164 11.9992 2.00157C12.0036 2.00156 12.0085 2.00052 12.0128 2.0006L12.0119 2.00157ZM10.9318 18.4415C10.6581 18.4416 10.3954 18.5506 10.202 18.7441C10.0087 18.9376 9.89934 19.2004 9.89934 19.4739C9.89958 19.7473 10.0086 20.0104 10.202 20.2037C10.3954 20.3969 10.6584 20.5053 10.9318 20.5054H13.0667C13.3401 20.5053 13.603 20.3969 13.7965 20.2037C13.9898 20.0104 14.0979 19.7473 14.0981 19.4739C14.0981 19.2004 13.9898 18.9376 13.7965 18.7441C13.603 18.5506 13.3403 18.4415 13.0667 18.4415H10.9318ZM4.17091 10.6122C3.99159 10.6122 3.81993 10.6839 3.69313 10.8107C3.56633 10.9375 3.49463 11.1092 3.49463 11.2885V14.1357C3.49487 14.3147 3.56654 14.4869 3.69313 14.6135C3.81986 14.7398 3.99194 14.811 4.17091 14.811H5.5585V10.6122H4.17091ZM18.4409 14.811H19.8285C20.0076 14.8109 20.1806 14.7402 20.3072 14.6135C20.4337 14.4869 20.5045 14.3146 20.5048 14.1357V11.2885C20.5048 11.1096 20.4335 10.9374 20.3072 10.8107C20.1806 10.684 20.0076 10.6124 19.8285 10.6122H18.4409V14.811Z" fill="#FF585C" style="fill:var(--icon--base--brand-solid, #FF585C)"/></svg>
