<svg viewBox="0 0 24 24" xmlns="http://www.w3.org/2000/svg"><path fill-rule="evenodd" clip-rule="evenodd" d="M13.5801 3.65338C15.1203 2.58768 17.1982 3.70662 17.167 5.57233L17.168 18.4464C17.1262 20.3096 14.9616 21.4036 13.4355 20.3477L13.4248 20.3399L7.33594 15.9649H5.16797C3.87843 15.9649 2.81061 14.897 2.81055 13.6075V10.3936C2.81055 9.10404 3.8784 8.0362 5.16797 8.0362H7.3418L13.5762 3.65631L13.5801 3.65338ZM15.668 5.55475C15.6835 4.90384 14.9728 4.51932 14.4385 4.88385L8.00977 9.40045C7.88351 9.48913 7.73241 9.5362 7.57812 9.5362H5.16797C4.70682 9.5362 4.31055 9.93247 4.31055 10.3936V13.6075C4.31061 14.0686 4.70686 14.4649 5.16797 14.4649H7.57812C7.73497 14.4649 7.88819 14.5141 8.01562 14.6055L14.2891 19.1143L14.3945 19.1758C14.9357 19.4403 15.6541 19.0348 15.668 18.4122V5.55475Z" fill="currentColor"/> <path d="M19.1543 9.01178C19.4735 8.74808 19.9461 8.79328 20.21 9.11237C20.8798 9.9224 21.2256 10.9506 21.1846 12.0001C21.2259 13.0501 20.8802 14.0793 20.21 14.8897C19.946 15.2086 19.4734 15.253 19.1543 14.9893C18.8352 14.7254 18.7901 14.2528 19.0537 13.9337C19.4383 13.4686 19.6592 12.8923 19.6865 12.294V11.7071C19.6592 11.109 19.4382 10.5334 19.0537 10.0684C18.7897 9.74925 18.8352 9.27578 19.1543 9.01178Z" fill="currentColor"/></svg>
